<?xml version="1.0" standalone="no"?>
<!DOCTYPE svg PUBLIC "-//W3C//DTD SVG 20010904//EN"
 "http://www.w3.org/TR/2001/REC-SVG-20010904/DTD/svg10.dtd">
<svg version="1.0" xmlns="http://www.w3.org/2000/svg"
 width="360.000000pt" height="360.000000pt" viewBox="0 0 360.000000 360.000000"
 preserveAspectRatio="xMidYMid meet">
<metadata>
Created by potrace 1.16, written by Peter Selinger 2001-2019
</metadata>
<g transform="translate(0.000000,360.000000) scale(0.100000,-0.100000)"
fill="#000000" stroke="none">
<path d="M1626 2063 l-148 -105 -28 27 -28 27 -339 -262 c-186 -145 -345 -269
-353 -277 -16 -16 -22 -19 392 221 158 91 290 166 293 166 3 0 5 -15 5 -32 0
-18 4 -38 8 -45 5 -8 61 21 180 94 l173 105 227 -110 c125 -61 370 -180 545
-266 174 -85 317 -153 317 -152 0 2 -44 32 -97 67 -54 35 -285 185 -513 334
-228 149 -431 280 -450 292 l-35 21 -149 -105z"/>
</g>
</svg>
